<svg width="37" height="82" viewBox="0 0 37 82" fill="none" xmlns="http://www.w3.org/2000/svg">
<path d="M28.2809 0C33.67 0 36.3646 3.7392 36.3646 8.0237C36.3646 13.3742 31.6833 18.3229 25.5903 18.3229C20.4867 18.3229 17.5106 15.2479 17.6514 10.1639C17.6514 5.8876 21.1946 0 28.2809 0ZM11.6992 82C7.44424 82 4.32739 79.3268 7.30348 67.5516L12.1859 46.6744C13.0345 43.337 13.1752 41.9963 12.1859 41.9963C10.911 41.9963 5.39315 44.3005 2.12348 46.576L0 42.968C10.3439 34.0054 22.2442 28.7533 27.3518 28.7533C31.6028 28.7533 32.3106 33.9726 30.1872 41.9963L24.5929 63.9395C23.6036 67.814 24.0259 69.1506 25.0192 69.1506C26.2941 69.1506 30.4767 67.5434 34.587 64.2019L37 67.5393C26.9376 77.982 15.9462 82 11.6992 82Z" fill="#1ADDA5"/>
</svg>
